<svg width="62" height="57" viewBox="0 0 62 57" fill="none" xmlns="http://www.w3.org/2000/svg">
<path d="M25.8334 14.25V11.875H36.1667V14.25H41.3334V11.875C41.332 10.6156 40.7873 9.40816 39.8186 8.51763C38.85 7.62711 37.5366 7.12626 36.1667 7.125H25.8334C24.4635 7.12626 23.1502 7.62711 22.1815 8.51763C21.2129 9.40816 20.6681 10.6156 20.6667 11.875V14.25H25.8334Z" fill="#13DEB9"/>
<path d="M23.2501 35.625C22.5649 35.625 21.9079 35.3748 21.4234 34.9294C20.9389 34.484 20.6667 33.8799 20.6667 33.25V28.5C20.6667 27.8701 20.9389 27.266 21.4234 26.8206C21.9079 26.3752 22.5649 26.125 23.2501 26.125C23.9352 26.125 24.5923 26.3752 25.0768 26.8206C25.5612 27.266 25.8334 27.8701 25.8334 28.5V33.25C25.8334 33.8799 25.5612 34.484 25.0768 34.9294C24.5923 35.3748 23.9352 35.625 23.2501 35.625ZM38.7501 35.625C38.0649 35.625 37.4079 35.3748 36.9234 34.9294C36.4389 34.484 36.1667 33.8799 36.1667 33.25V28.5C36.1667 27.8701 36.4389 27.266 36.9234 26.8206C37.4079 26.3752 38.0649 26.125 38.7501 26.125C39.4352 26.125 40.0923 26.3752 40.5768 26.8206C41.0612 27.266 41.3334 27.8701 41.3334 28.5V33.25C41.3334 33.8799 41.0612 34.484 40.5768 34.9294C40.0923 35.3748 39.4352 35.625 38.7501 35.625Z" fill="#B3FFEE"/>
<path d="M51.6668 14.25H10.3334C8.96313 14.25 7.64897 14.7504 6.68003 15.6412C5.71109 16.532 5.16675 17.7402 5.16675 19V26.125C5.16675 27.3848 5.71109 28.593 6.68003 29.4838C7.64897 30.3746 8.96313 30.875 10.3334 30.875H20.6667V28.5C20.6667 27.8701 20.9389 27.266 21.4234 26.8206C21.9079 26.3752 22.5649 26.125 23.2501 26.125C23.9352 26.125 24.5923 26.3752 25.0768 26.8206C25.5612 27.266 25.8334 27.8701 25.8334 28.5V30.875H36.1667V28.5C36.1667 27.8701 36.4389 27.266 36.9234 26.8206C37.4079 26.3752 38.0649 26.125 38.7501 26.125C39.4352 26.125 40.0923 26.3752 40.5768 26.8206C41.0612 27.266 41.3334 27.8701 41.3334 28.5V30.875H51.6668C53.037 30.875 54.3512 30.3746 55.3201 29.4838C56.2891 28.593 56.8334 27.3848 56.8334 26.125V19C56.8334 17.7402 56.2891 16.532 55.3201 15.6412C54.3512 14.7504 53.037 14.25 51.6668 14.25Z" fill="#54EBC9"/>
<path d="M51.6668 30.875H41.3334V33.25C41.3334 33.8799 41.0612 34.484 40.5768 34.9294C40.0923 35.3748 39.4352 35.625 38.7501 35.625C38.0649 35.625 37.4079 35.3748 36.9234 34.9294C36.4389 34.484 36.1667 33.8799 36.1667 33.25V30.875H25.8334V33.25C25.8334 33.8799 25.5612 34.484 25.0768 34.9294C24.5923 35.3748 23.9352 35.625 23.2501 35.625C22.5649 35.625 21.9079 35.3748 21.4234 34.9294C20.9389 34.484 20.6667 33.8799 20.6667 33.25V30.875H10.3334C8.96313 30.875 7.64897 30.3746 6.68003 29.4838C5.71109 28.593 5.16675 27.3848 5.16675 26.125V45.125C5.16675 46.3848 5.71109 47.593 6.68003 48.4838C7.64897 49.3746 8.96313 49.875 10.3334 49.875H51.6668C53.037 49.875 54.3512 49.3746 55.3201 48.4838C56.2891 47.593 56.8334 46.3848 56.8334 45.125V26.125C56.8334 27.3848 56.2891 28.593 55.3201 29.4838C54.3512 30.3746 53.037 30.875 51.6668 30.875Z" fill="#13DEB9"/>
</svg>
