<svg width="24" height="24" viewBox="0 0 24 24" fill="none" xmlns="http://www.w3.org/2000/svg">
<path d="M18 20.0002V3.00023C17.9999 2.82505 17.9537 2.65297 17.8662 2.50124C17.7786 2.3495 17.6528 2.22342 17.5012 2.13563C17.3496 2.04783 17.1776 2.0014 17.0024 2.00098C16.8272 2.00056 16.655 2.04616 16.503 2.13323L13.5 3.85323L10.497 2.13323C10.3457 2.04657 10.1744 2.00098 10 2.00098C9.82564 2.00098 9.6543 2.04657 9.503 2.13323L6.5 3.85323L3.497 2.13323C3.34499 2.04616 3.17277 2.00056 2.99759 2.00098C2.82241 2.0014 2.65042 2.04783 2.49883 2.13563C2.34724 2.22342 2.22137 2.3495 2.13382 2.50124C2.04628 2.65297 2.00013 2.82505 2 3.00023V20.0002C2 20.5307 2.21071 21.0394 2.58579 21.4144C2.96086 21.7895 3.46957 22.0002 4 22.0002H20C19.4696 22.0002 18.9609 21.7895 18.5858 21.4144C18.2107 21.0394 18 20.5307 18 20.0002Z" fill="#BBD7FF"/>
<path d="M21.999 14V20C21.999 20.5304 21.7883 21.0391 21.4132 21.4142C21.0381 21.7893 20.5294 22 19.999 22C19.4686 22 18.9599 21.7893 18.5848 21.4142C18.2097 21.0391 17.999 20.5304 17.999 20V12H19.999C20.5294 12 21.0381 12.2107 21.4132 12.5858C21.7883 12.9609 21.999 13.4696 21.999 14ZM10.5 16.5H8C7.73478 16.5 7.48043 16.3946 7.29289 16.2071C7.10536 16.0196 7 15.7652 7 15.5C7 15.2348 7.10536 14.9804 7.29289 14.7929C7.48043 14.6054 7.73478 14.5 8 14.5H10.5C10.6326 14.5 10.7598 14.4473 10.8536 14.3536C10.9473 14.2598 11 14.1326 11 14C11 13.8674 10.9473 13.7402 10.8536 13.6464C10.7598 13.5527 10.6326 13.5 10.5 13.5H9.5C8.83696 13.5 8.20107 13.2366 7.73223 12.7678C7.26339 12.2989 7 11.663 7 11C7 10.337 7.26339 9.70107 7.73223 9.23223C8.20107 8.76339 8.83696 8.5 9.5 8.5H12C12.2652 8.5 12.5196 8.60536 12.7071 8.79289C12.8946 8.98043 13 9.23478 13 9.5C13 9.76522 12.8946 10.0196 12.7071 10.2071C12.5196 10.3946 12.2652 10.5 12 10.5H9.5C9.36739 10.5 9.24021 10.5527 9.14645 10.6464C9.05268 10.7402 9 10.8674 9 11C9 11.1326 9.05268 11.2598 9.14645 11.3536C9.24021 11.4473 9.36739 11.5 9.5 11.5H10.5C11.163 11.5 11.7989 11.7634 12.2678 12.2322C12.7366 12.7011 13 13.337 13 14C13 14.663 12.7366 15.2989 12.2678 15.7678C11.7989 16.2366 11.163 16.5 10.5 16.5Z" fill="#539BFF"/>
</svg>
