<svg width="49" height="48" viewBox="0 0 49 48" fill="none" xmlns="http://www.w3.org/2000/svg">
<path d="M24.5004 44C16.2844 44 9.36339 37.86 8.38439 29.703L7.58739 25.064C6.37139 14.924 14.2884 6 24.5004 6C34.7124 6 42.6294 14.924 41.4124 25.063L40.6154 29.702C39.6374 37.86 32.7164 44 24.5004 44Z" fill="#7DEBF5"/>
<path d="M38.201 10.9159C37.376 9.79893 36.414 8.78293 35.343 7.89893C32.412 5.47393 28.645 4.00293 24.5 4.00293C20.355 4.00293 16.588 5.47393 13.656 7.89793C13.102 8.35593 12.572 8.84893 12.076 9.38293C8.961 12.7059 7.17299 17.2619 7.50299 22.1599C10.865 20.7109 13.383 17.6779 14.118 14.0019H34.882C35.617 17.6789 38.135 20.7109 41.497 22.1599C41.778 17.9819 40.519 14.0529 38.201 10.9159Z" fill="#3DD9EB"/>
<path d="M40.5 31H8.5C6.843 31 5.5 29.657 5.5 28C5.5 26.343 6.843 25 8.5 25H40.5C42.157 25 43.5 26.343 43.5 28C43.5 29.657 42.157 31 40.5 31Z" fill="#7DEBF5"/>
<path d="M38.201 13.913C37.376 12.796 36.414 11.78 35.343 10.896C32.412 8.471 28.645 7 24.5 7C20.355 7 16.588 8.471 13.656 10.895C13.102 11.353 12.572 11.846 12.076 12.38C8.961 15.703 7.17299 20.259 7.50299 25.157C10.865 23.708 13.383 20.675 14.118 16.999H34.882C35.617 20.676 38.135 23.708 41.497 25.157C41.778 20.979 40.519 17.05 38.201 13.913Z" fill="#3DD9EB"/>
</svg>
